<svg width="222" height="125" viewBox="0 0 222 125" fill="none" xmlns="http://www.w3.org/2000/svg">
<rect x="34.1425" y="36.3585" width="151.85" height="62.0234" fill="#141414"/>
<path fill-rule="evenodd" clip-rule="evenodd" d="M202.154 102.829H20.29V92.6314H202.154V102.829Z" fill="#B5745E" stroke="black" stroke-width="1.69966"/>
<path fill-rule="evenodd" clip-rule="evenodd" d="M220 124.075H1.59387L6.01547 113.452L8.25907 108.062C9.57787 104.894 12.6729 102.829 16.1049 102.829H206.974C210.666 102.829 213.935 105.212 215.065 108.726L220 124.075Z" fill="#B5745E" stroke="black" stroke-width="1.69966"/>
<mask id="path-4-inside-1" fill="white">
<path fill-rule="evenodd" clip-rule="evenodd" d="M76.3631 20.318H13.8245V36.3585H24.518V93.0351H37.3504V36.3585H55.5298V93.0351H68.3622V36.3585H86.5414V93.0351H99.3738V36.3585H117.553V93.0351H130.385V36.3585H148.565V93.0351H161.397V36.3585H179.577V93.0351H192.409V36.3585H206.311V20.318H143.772C143.452 19.4747 143.085 18.6423 142.671 17.8237C140.897 14.3207 138.298 11.1378 135.021 8.45669C131.744 5.77559 127.854 3.64882 123.572 2.19782C119.291 0.746821 114.702 0 110.068 0C105.433 0 100.845 0.746821 96.563 2.19782C92.2816 3.64882 88.3913 5.77559 85.1144 8.45669C81.8375 11.1378 79.2381 14.3207 77.4647 17.8238C77.0503 18.6423 76.6828 19.4747 76.3631 20.318Z"/>
</mask>
<path fill-rule="evenodd" clip-rule="evenodd" d="M76.3631 20.318H13.8245V36.3585H24.518V93.0351H37.3504V36.3585H55.5298V93.0351H68.3622V36.3585H86.5414V93.0351H99.3738V36.3585H117.553V93.0351H130.385V36.3585H148.565V93.0351H161.397V36.3585H179.577V93.0351H192.409V36.3585H206.311V20.318H143.772C143.452 19.4747 143.085 18.6423 142.671 17.8237C140.897 14.3207 138.298 11.1378 135.021 8.45669C131.744 5.77559 127.854 3.64882 123.572 2.19782C119.291 0.746821 114.702 0 110.068 0C105.433 0 100.845 0.746821 96.563 2.19782C92.2816 3.64882 88.3913 5.77559 85.1144 8.45669C81.8375 11.1378 79.2381 14.3207 77.4647 17.8238C77.0503 18.6423 76.6828 19.4747 76.3631 20.318Z" fill="#F0D6BB"/>
<path d="M13.8245 20.318V18.6183H12.1248V20.318H13.8245ZM76.3631 20.318V22.0177H77.5364L77.9523 20.9206L76.3631 20.318ZM13.8245 36.3585H12.1248V38.0582H13.8245V36.3585ZM24.518 36.3585H26.2177V34.6589H24.518V36.3585ZM24.518 93.0351H22.8183V94.7347H24.518V93.0351ZM37.3504 93.0351V94.7347H39.0501V93.0351H37.3504ZM37.3504 36.3585V34.6589H35.6508V36.3585H37.3504ZM55.5298 36.3585H57.2294V34.6589H55.5298V36.3585ZM55.5298 93.0351H53.8301V94.7347H55.5298V93.0351ZM68.3622 93.0351V94.7347H70.0619V93.0351H68.3622ZM68.3622 36.3585V34.6589H66.6625V36.3585H68.3622ZM86.5414 36.3585H88.2411V34.6589H86.5414V36.3585ZM86.5414 93.0351H84.8418V94.7347H86.5414V93.0351ZM99.3738 93.0351V94.7347H101.074V93.0351H99.3738ZM99.3738 36.3585V34.6589H97.6742V36.3585H99.3738ZM117.553 36.3585H119.253V34.6589H117.553V36.3585ZM117.553 93.0351H115.853V94.7347H117.553V93.0351ZM130.385 93.0351V94.7347H132.085V93.0351H130.385ZM130.385 36.3585V34.6589H128.686V36.3585H130.385ZM148.565 36.3585H150.265V34.6589H148.565V36.3585ZM148.565 93.0351H146.865V94.7347H148.565V93.0351ZM161.397 93.0351V94.7347H163.097V93.0351H161.397ZM161.397 36.3585V34.6589H159.698V36.3585H161.397ZM179.577 36.3585H181.276V34.6589H179.577V36.3585ZM179.577 93.0351H177.877V94.7347H179.577V93.0351ZM192.409 93.0351V94.7347H194.109V93.0351H192.409ZM192.409 36.3585V34.6589H190.709V36.3585H192.409ZM206.311 36.3585V38.0582H208.01V36.3585H206.311ZM206.311 20.318H208.01V18.6183H206.311V20.318ZM143.772 20.318L142.183 20.9206L142.599 22.0177H143.772V20.318ZM142.671 17.8237L141.154 18.5914L141.154 18.5915L142.671 17.8237ZM135.021 8.45669L133.945 9.77215L133.945 9.77215L135.021 8.45669ZM123.572 2.19782L123.027 3.80755L123.027 3.80755L123.572 2.19782ZM96.563 2.19782L97.1086 3.80755L97.1086 3.80755L96.563 2.19782ZM85.1144 8.45669L86.1907 9.77216L86.1907 9.77216L85.1144 8.45669ZM77.4647 17.8238L75.9483 17.0561L75.9483 17.0561L77.4647 17.8238ZM13.8245 22.0177H76.3631V18.6183H13.8245V22.0177ZM15.5241 36.3585V20.318H12.1248V36.3585H15.5241ZM24.518 34.6589H13.8245V38.0582H24.518V34.6589ZM26.2177 93.0351V36.3585H22.8183V93.0351H26.2177ZM37.3504 91.3354H24.518V94.7347H37.3504V91.3354ZM35.6508 36.3585V93.0351H39.0501V36.3585H35.6508ZM55.5298 34.6589H37.3504V38.0582H55.5298V34.6589ZM57.2294 93.0351V36.3585H53.8301V93.0351H57.2294ZM68.3622 91.3354H55.5298V94.7347H68.3622V91.3354ZM66.6625 36.3585V93.0351H70.0619V36.3585H66.6625ZM86.5414 34.6589H68.3622V38.0582H86.5414V34.6589ZM88.2411 93.0351V36.3585H84.8418V93.0351H88.2411ZM99.3738 91.3354H86.5414V94.7347H99.3738V91.3354ZM97.6742 36.3585V93.0351H101.074V36.3585H97.6742ZM117.553 34.6589H99.3738V38.0582H117.553V34.6589ZM119.253 93.0351V36.3585H115.853V93.0351H119.253ZM130.385 91.3354H117.553V94.7347H130.385V91.3354ZM128.686 36.3585V93.0351H132.085V36.3585H128.686ZM148.565 34.6589H130.385V38.0582H148.565V34.6589ZM150.265 93.0351V36.3585H146.865V93.0351H150.265ZM161.397 91.3354H148.565V94.7347H161.397V91.3354ZM159.698 36.3585V93.0351H163.097V36.3585H159.698ZM179.577 34.6589H161.397V38.0582H179.577V34.6589ZM181.276 93.0351V36.3585H177.877V93.0351H181.276ZM192.409 91.3354H179.577V94.7347H192.409V91.3354ZM190.709 36.3585V93.0351H194.109V36.3585H190.709ZM206.311 34.6589H192.409V38.0582H206.311V34.6589ZM204.611 20.318V36.3585H208.01V20.318H204.611ZM143.772 22.0177H206.311V18.6183H143.772V22.0177ZM145.361 19.7154C145.02 18.8151 144.628 17.9277 144.187 17.056L141.154 18.5915C141.542 19.357 141.885 20.1342 142.183 20.9206L145.361 19.7154ZM144.187 17.0561C142.298 13.3256 139.543 9.96037 136.097 7.14123L133.945 9.77215C137.053 12.3152 139.496 15.3158 141.154 18.5914L144.187 17.0561ZM136.097 7.14123C132.652 4.32247 128.579 2.10008 124.118 0.588094L123.027 3.80755C127.128 5.19756 130.836 7.22871 133.945 9.77215L136.097 7.14123ZM124.118 0.588094C119.656 -0.923958 114.883 -1.69966 110.068 -1.69966V1.69966C114.521 1.69966 118.925 2.4176 123.027 3.80755L124.118 0.588094ZM110.068 -1.69966C105.253 -1.69966 100.479 -0.923957 96.0175 0.588095L97.1086 3.80755C101.21 2.4176 105.614 1.69966 110.068 1.69966V-1.69966ZM96.0175 0.588095C91.5561 2.10009 87.4833 4.32247 84.0381 7.14123L86.1907 9.77216C89.2994 7.22871 93.0071 5.19756 97.1086 3.80755L96.0175 0.588095ZM84.0381 7.14123C80.5925 9.96037 77.8369 13.3256 75.9483 17.0561L78.9811 18.5914C80.6394 15.3158 83.0825 12.3152 86.1907 9.77216L84.0381 7.14123ZM75.9483 17.0561C75.507 17.9277 75.1152 18.8151 74.7738 19.7154L77.9523 20.9206C78.2505 20.1342 78.5935 19.357 78.9811 18.5914L75.9483 17.0561Z" fill="black" mask="url(#path-4-inside-1)"/>
<path d="M37.3505 28.873H55.5297" stroke="#B99673" stroke-width="1.69966"/>
<path d="M68.3621 28.873H86.5413" stroke="#B99673" stroke-width="1.69966"/>
<path d="M78.0785 21.2457L141.816 21.2457" stroke="#B99673" stroke-width="1.69966"/>
<path d="M99.3738 28.873H117.553" stroke="#B99673" stroke-width="1.69966"/>
<path d="M130.385 28.873H148.565" stroke="#B99673" stroke-width="1.69966"/>
<path d="M161.397 28.873H179.576" stroke="#B99673" stroke-width="1.69966"/>
<path d="M78.0785 102.404L62.7816 124.075" stroke="black" stroke-width="1.69966"/>
<path d="M139.266 102.829L154.563 124.5" stroke="black" stroke-width="1.69966"/>
<path d="M73.4045 109.203H143.515" stroke="black" stroke-width="1.69966"/>
<path d="M68.7303 116.427L148.614 116.427" stroke="black" stroke-width="1.69966"/>
</svg>
