<svg width="20" height="17" viewBox="0 0 20 17" fill="none" xmlns="http://www.w3.org/2000/svg">
<path d="M4.58337 16.6667C4.09092 16.6667 3.60328 16.5697 3.14831 16.3812C2.69334 16.1928 2.27994 15.9165 1.93172 15.5683C1.5835 15.2201 1.30728 14.8067 1.11883 14.3517C0.930371 13.8968 0.833374 13.4091 0.833374 12.9167C0.833374 12.4242 0.930371 11.9366 1.11883 11.4816C1.30728 11.0266 1.5835 10.6132 1.93172 10.265C2.27994 9.9168 2.69334 9.64057 3.14831 9.45212C3.60328 9.26366 4.09092 9.16667 4.58337 9.16667C5.57794 9.16667 6.53176 9.56175 7.23502 10.265C7.93828 10.9683 8.33337 11.9221 8.33337 12.9167C8.33337 13.9112 7.93828 14.8651 7.23502 15.5683C6.53176 16.2716 5.57794 16.6667 4.58337 16.6667V16.6667ZM4.58337 15C5.13591 15 5.66581 14.7805 6.05651 14.3898C6.44721 13.9991 6.66671 13.4692 6.66671 12.9167C6.66671 12.3641 6.44721 11.8342 6.05651 11.4435C5.66581 11.0528 5.13591 10.8333 4.58337 10.8333C4.03084 10.8333 3.50094 11.0528 3.11023 11.4435C2.71953 11.8342 2.50004 12.3641 2.50004 12.9167C2.50004 13.4692 2.71953 13.9991 3.11023 14.3898C3.50094 14.7805 4.03084 15 4.58337 15V15ZM15.4167 16.6667C14.9242 16.6667 14.4366 16.5697 13.9816 16.3812C13.5267 16.1928 13.1133 15.9165 12.7651 15.5683C12.4168 15.2201 12.1406 14.8067 11.9522 14.3517C11.7637 13.8968 11.6667 13.4091 11.6667 12.9167C11.6667 12.4242 11.7637 11.9366 11.9522 11.4816C12.1406 11.0266 12.4168 10.6132 12.7651 10.265C13.1133 9.9168 13.5267 9.64057 13.9816 9.45212C14.4366 9.26366 14.9242 9.16667 15.4167 9.16667C16.4113 9.16667 17.3651 9.56175 18.0684 10.265C18.7716 10.9683 19.1667 11.9221 19.1667 12.9167C19.1667 13.9112 18.7716 14.8651 18.0684 15.5683C17.3651 16.2716 16.4113 16.6667 15.4167 16.6667V16.6667ZM15.4167 15C15.9692 15 16.4991 14.7805 16.8898 14.3898C17.2805 13.9991 17.5 13.4692 17.5 12.9167C17.5 12.3641 17.2805 11.8342 16.8898 11.4435C16.4991 11.0528 15.9692 10.8333 15.4167 10.8333C14.8642 10.8333 14.3343 11.0528 13.9436 11.4435C13.5529 11.8342 13.3334 12.3641 13.3334 12.9167C13.3334 13.4692 13.5529 13.9991 13.9436 14.3898C14.3343 14.7805 14.8642 15 15.4167 15ZM9.18587 7.75417L10.8334 9.16667V14.1667H9.16671V10L6.90087 8.11167C6.69924 7.9731 6.53059 7.79185 6.40689 7.58077C6.28319 7.36969 6.20747 7.13397 6.18512 6.89034C6.16277 6.64671 6.19433 6.40114 6.27756 6.17108C6.36079 5.94102 6.49365 5.7321 6.66671 5.55917L9.02337 3.2025C9.17815 3.04766 9.36191 2.92484 9.56416 2.84104C9.76641 2.75724 9.9832 2.71411 10.2021 2.71411C10.421 2.71411 10.6378 2.75724 10.8401 2.84104C11.0423 2.92484 11.2261 3.04766 11.3809 3.2025L12.5592 4.38083C13.4417 5.26652 14.5865 5.84373 15.8234 6.02667L15.815 7.70583C14.1368 7.51263 12.5737 6.75618 11.3809 5.56L9.18587 7.75417V7.75417ZM13.3334 3.33333C12.8913 3.33333 12.4674 3.15774 12.1549 2.84518C11.8423 2.53262 11.6667 2.10869 11.6667 1.66667C11.6667 1.22464 11.8423 0.800716 12.1549 0.488155C12.4674 0.175595 12.8913 0 13.3334 0C13.7754 0 14.1993 0.175595 14.5119 0.488155C14.8244 0.800716 15 1.22464 15 1.66667C15 2.10869 14.8244 2.53262 14.5119 2.84518C14.1993 3.15774 13.7754 3.33333 13.3334 3.33333V3.33333Z" fill="#00439E"/>
</svg>
