<svg width="20" height="18" viewBox="0 0 20 18" fill="none" xmlns="http://www.w3.org/2000/svg">
<path d="M4.58325 17.5C4.09079 17.5 3.60316 17.403 3.14819 17.2145C2.69322 17.0261 2.27982 16.7499 1.9316 16.4016C1.58338 16.0534 1.30716 15.64 1.1187 15.1851C0.930249 14.7301 0.833252 14.2425 0.833252 13.75C0.833252 13.2575 0.930249 12.7699 1.1187 12.3149C1.30716 11.86 1.58338 11.4466 1.9316 11.0983C2.27982 10.7501 2.69322 10.4739 3.14819 10.2854C3.60316 10.097 4.09079 9.99999 4.58325 9.99999C5.57781 9.99999 6.53164 10.3951 7.2349 11.0983C7.93816 11.8016 8.33325 12.7554 8.33325 13.75C8.33325 14.7446 7.93816 15.6984 7.2349 16.4016C6.53164 17.1049 5.57781 17.5 4.58325 17.5ZM4.58325 15.8333C5.13579 15.8333 5.66569 15.6138 6.05639 15.2231C6.44709 14.8324 6.66658 14.3025 6.66658 13.75C6.66658 13.1975 6.44709 12.6676 6.05639 12.2769C5.66569 11.8862 5.13579 11.6667 4.58325 11.6667C4.03072 11.6667 3.50081 11.8862 3.11011 12.2769C2.71941 12.6676 2.49992 13.1975 2.49992 13.75C2.49992 14.3025 2.71941 14.8324 3.11011 15.2231C3.50081 15.6138 4.03072 15.8333 4.58325 15.8333ZM15.4166 17.5C14.9241 17.5 14.4365 17.403 13.9815 17.2145C13.5265 17.0261 13.1132 16.7499 12.7649 16.4016C12.4167 16.0534 12.1405 15.64 11.952 15.1851C11.7636 14.7301 11.6666 14.2425 11.6666 13.75C11.6666 13.2575 11.7636 12.7699 11.952 12.3149C12.1405 11.86 12.4167 11.4466 12.7649 11.0983C13.1132 10.7501 13.5265 10.4739 13.9815 10.2854C14.4365 10.097 14.9241 9.99999 15.4166 9.99999C16.4111 9.99999 17.365 10.3951 18.0682 11.0983C18.7715 11.8016 19.1666 12.7554 19.1666 13.75C19.1666 14.7446 18.7715 15.6984 18.0682 16.4016C17.365 17.1049 16.4111 17.5 15.4166 17.5ZM15.4166 15.8333C15.9691 15.8333 16.499 15.6138 16.8897 15.2231C17.2804 14.8324 17.4999 14.3025 17.4999 13.75C17.4999 13.1975 17.2804 12.6676 16.8897 12.2769C16.499 11.8862 15.9691 11.6667 15.4166 11.6667C14.864 11.6667 14.3341 11.8862 13.9434 12.2769C13.5527 12.6676 13.3333 13.1975 13.3333 13.75C13.3333 14.3025 13.5527 14.8324 13.9434 15.2231C14.3341 15.6138 14.864 15.8333 15.4166 15.8333ZM9.18575 8.58749L10.8333 9.99999V15H9.16658V10.8333L6.90075 8.94499C6.69912 8.80643 6.53046 8.62518 6.40676 8.4141C6.28306 8.20302 6.20735 7.9673 6.185 7.72367C6.16265 7.48004 6.19421 7.23447 6.27744 7.00441C6.36067 6.77435 6.49353 6.56543 6.66658 6.39249L9.02325 4.03583C9.17802 3.88099 9.36179 3.75817 9.56404 3.67437C9.76629 3.59057 9.98307 3.54743 10.202 3.54743C10.4209 3.54743 10.6377 3.59057 10.84 3.67437C11.0422 3.75817 11.226 3.88099 11.3807 4.03583L12.5591 5.21416C13.4416 6.09984 14.5864 6.67706 15.8232 6.85999L15.8149 8.53916C14.1367 8.34596 12.5736 7.58951 11.3807 6.39333L9.18575 8.58749ZM13.3333 4.16666C12.8912 4.16666 12.4673 3.99107 12.1547 3.67851C11.8422 3.36595 11.6666 2.94202 11.6666 2.49999C11.6666 2.05797 11.8422 1.63404 12.1547 1.32148C12.4673 1.00892 12.8912 0.833328 13.3333 0.833328C13.7753 0.833328 14.1992 1.00892 14.5118 1.32148C14.8243 1.63404 14.9999 2.05797 14.9999 2.49999C14.9999 2.94202 14.8243 3.36595 14.5118 3.67851C14.1992 3.99107 13.7753 4.16666 13.3333 4.16666Z" fill="#828282"/>
</svg>
