<svg width="16" height="16" viewBox="0 0 16 16" fill="none" xmlns="http://www.w3.org/2000/svg">
<path d="M5.99992 6.66668C5.82311 6.66668 5.65354 6.73692 5.52852 6.86194C5.4035 6.98697 5.33326 7.15654 5.33326 7.33335V10H6.66659V8.00001H8.66659V9.66668L10.9999 7.33335L8.66659 5.00001V6.66668H5.99992ZM8.47126 0.928681L15.0713 7.52868C15.1962 7.6537 15.2664 7.82324 15.2664 8.00001C15.2664 8.17679 15.1962 8.34633 15.0713 8.47135L8.47126 15.0713C8.34624 15.1963 8.1767 15.2665 7.99992 15.2665C7.82315 15.2665 7.65361 15.1963 7.52859 15.0713L0.928589 8.47135C0.803609 8.34633 0.733398 8.17679 0.733398 8.00001C0.733398 7.82324 0.803609 7.6537 0.928589 7.52868L7.52859 0.928681C7.65361 0.8037 7.82315 0.73349 7.99992 0.73349C8.1767 0.73349 8.34624 0.8037 8.47126 0.928681Z" fill="white"/>
</svg>
