<svg width="48" height="48" viewBox="0 0 48 48" fill="none" xmlns="http://www.w3.org/2000/svg">
<mask id="mask0" mask-type="alpha" maskUnits="userSpaceOnUse" x="0" y="0" width="48" height="48">
<rect width="48" height="48" fill="#C4C4C4"/>
</mask>
<g mask="url(#mask0)">
<rect x="2" y="2" width="44" height="44" rx="8" fill="#5D3754"/>
<path d="M39 22.5V36H36V31.5H12V36H9V12H12V27H24V16.5H33C34.5913 16.5 36.1174 17.1321 37.2426 18.2574C38.3679 19.3826 39 20.9087 39 22.5ZM18 25.5C16.8065 25.5 15.6619 25.0259 14.818 24.182C13.9741 23.3381 13.5 22.1935 13.5 21C13.5 19.8065 13.9741 18.6619 14.818 17.818C15.6619 16.9741 16.8065 16.5 18 16.5C19.1935 16.5 20.3381 16.9741 21.182 17.818C22.0259 18.6619 22.5 19.8065 22.5 21C22.5 22.1935 22.0259 23.3381 21.182 24.182C20.3381 25.0259 19.1935 25.5 18 25.5Z" fill="white"/>
</g>
</svg>
