<svg width="18" height="16" viewBox="0 0 18 16" fill="none" xmlns="http://www.w3.org/2000/svg">
<path d="M1.50008 0.5H16.5001C16.7211 0.5 16.9331 0.587797 17.0893 0.744078C17.2456 0.900358 17.3334 1.11232 17.3334 1.33333V14.6667C17.3334 14.8877 17.2456 15.0996 17.0893 15.2559C16.9331 15.4122 16.7211 15.5 16.5001 15.5H1.50008C1.27907 15.5 1.06711 15.4122 0.910826 15.2559C0.754545 15.0996 0.666748 14.8877 0.666748 14.6667V1.33333C0.666748 1.11232 0.754545 0.900358 0.910826 0.744078C1.06711 0.587797 1.27907 0.5 1.50008 0.5ZM9.05008 7.73583L3.70675 3.19833L2.62758 4.46833L9.06092 9.93083L15.3784 4.46417L14.2884 3.20333L9.05092 7.73583H9.05008Z" fill="#00439E"/>
</svg>
