<svg width="180" height="151" viewBox="0 0 180 151" fill="none" xmlns="http://www.w3.org/2000/svg">
<mask id="path-1-inside-1" fill="white">
<path fill-rule="evenodd" clip-rule="evenodd" d="M79 14H77C76.4477 14 76 13.5523 76 13V9C76 8.44772 76.4477 8 77 8H79.6828C81.3302 3.33923 85.7751 0 91 0C96.2249 0 100.67 3.33923 102.317 8H105C105.552 8 106 8.44772 106 9V13C106 13.5523 105.552 14 105 14H103V22.5476C104.747 23.0265 106.466 23.6151 108.147 24.3112C113.424 26.4973 118.22 29.7015 122.259 33.7409C126.298 37.7802 129.503 42.5756 131.689 47.8533C133.811 52.9769 134.933 58.4577 134.997 64H167V74H180V84H167V137H180V151H0V137H10V84H0V74H10V64H48.0029C48.0666 58.4577 49.189 52.9769 51.3112 47.8533C53.4973 42.5756 56.7015 37.7802 60.7409 33.7409C64.7802 29.7015 69.5756 26.4973 74.8533 24.3112C76.2122 23.7483 77.5963 23.2558 79 22.8347V14ZM91 20C93.7614 20 96 17.7614 96 15C96 12.2386 93.7614 10 91 10C88.2386 10 86 12.2386 86 15C86 17.7614 88.2386 20 91 20ZM155 84V137H138V84H155ZM126 84H109V137H126V84ZM97 84V137H80V84H97ZM68 84H51V137H68V84ZM39 84V137H22V84H39Z"/>
</mask>
<path fill-rule="evenodd" clip-rule="evenodd" d="M79 14H77C76.4477 14 76 13.5523 76 13V9C76 8.44772 76.4477 8 77 8H79.6828C81.3302 3.33923 85.7751 0 91 0C96.2249 0 100.67 3.33923 102.317 8H105C105.552 8 106 8.44772 106 9V13C106 13.5523 105.552 14 105 14H103V22.5476C104.747 23.0265 106.466 23.6151 108.147 24.3112C113.424 26.4973 118.22 29.7015 122.259 33.7409C126.298 37.7802 129.503 42.5756 131.689 47.8533C133.811 52.9769 134.933 58.4577 134.997 64H167V74H180V84H167V137H180V151H0V137H10V84H0V74H10V64H48.0029C48.0666 58.4577 49.189 52.9769 51.3112 47.8533C53.4973 42.5756 56.7015 37.7802 60.7409 33.7409C64.7802 29.7015 69.5756 26.4973 74.8533 24.3112C76.2122 23.7483 77.5963 23.2558 79 22.8347V14ZM91 20C93.7614 20 96 17.7614 96 15C96 12.2386 93.7614 10 91 10C88.2386 10 86 12.2386 86 15C86 17.7614 88.2386 20 91 20ZM155 84V137H138V84H155ZM126 84H109V137H126V84ZM97 84V137H80V84H97ZM68 84H51V137H68V84ZM39 84V137H22V84H39Z" fill="white"/>
<path d="M79 14H81C81 12.8954 80.1046 12 79 12V14ZM79.6828 8V10C80.5305 10 81.286 9.46568 81.5685 8.66649L79.6828 8ZM102.317 8L100.431 8.66649C100.714 9.46568 101.47 10 102.317 10V8ZM103 14V12C101.895 12 101 12.8954 101 14H103ZM103 22.5476H101C101 23.4486 101.602 24.2383 102.471 24.4765L103 22.5476ZM108.147 24.3112L108.912 22.4635L108.912 22.4635L108.147 24.3112ZM122.259 33.7409L123.673 32.3266L123.673 32.3266L122.259 33.7409ZM131.689 47.8533L133.537 47.0879L133.537 47.0879L131.689 47.8533ZM134.997 64L132.997 64.023C133.01 65.1185 133.902 66 134.997 66V64ZM167 64H169C169 62.8954 168.105 62 167 62V64ZM167 74H165C165 75.1046 165.895 76 167 76V74ZM180 74H182C182 72.8954 181.105 72 180 72V74ZM180 84V86C181.105 86 182 85.1046 182 84H180ZM167 84V82C165.895 82 165 82.8954 165 84H167ZM167 137H165C165 138.105 165.895 139 167 139V137ZM180 137H182C182 135.895 181.105 135 180 135V137ZM180 151V153C181.105 153 182 152.105 182 151H180ZM0 151H-2C-2 152.105 -1.10457 153 0 153L0 151ZM0 137V135C-1.10457 135 -2 135.895 -2 137H0ZM10 137V139C11.1046 139 12 138.105 12 137H10ZM10 84H12C12 82.8954 11.1046 82 10 82V84ZM0 84H-2C-2 85.1046 -1.10457 86 0 86L0 84ZM0 74V72C-1.10457 72 -2 72.8954 -2 74H0ZM10 74V76C11.1046 76 12 75.1046 12 74H10ZM10 64V62C8.89543 62 8 62.8954 8 64H10ZM48.0029 64V66C49.0985 66 49.9901 65.1185 50.0027 64.023L48.0029 64ZM51.3112 47.8533L49.4635 47.0879L49.4635 47.0879L51.3112 47.8533ZM60.7409 33.7409L59.3266 32.3266L59.3266 32.3266L60.7409 33.7409ZM74.8533 24.3112L75.6186 26.159L75.6186 26.159L74.8533 24.3112ZM79 22.8347L79.5747 24.7503C80.4207 24.4965 81 23.7179 81 22.8347H79ZM155 137V139C156.105 139 157 138.105 157 137H155ZM155 84H157C157 82.8954 156.105 82 155 82V84ZM138 137H136C136 138.105 136.895 139 138 139V137ZM138 84V82C136.895 82 136 82.8954 136 84H138ZM109 84V82C107.895 82 107 82.8954 107 84H109ZM126 84H128C128 82.8954 127.105 82 126 82V84ZM109 137H107C107 138.105 107.895 139 109 139V137ZM126 137V139C127.105 139 128 138.105 128 137H126ZM97 137V139C98.1046 139 99 138.105 99 137H97ZM97 84H99C99 82.8954 98.1046 82 97 82V84ZM80 137H78C78 138.105 78.8954 139 80 139V137ZM80 84V82C78.8954 82 78 82.8954 78 84H80ZM51 84V82C49.8954 82 49 82.8954 49 84H51ZM68 84H70C70 82.8954 69.1046 82 68 82V84ZM51 137H49C49 138.105 49.8954 139 51 139V137ZM68 137V139C69.1046 139 70 138.105 70 137H68ZM39 137V139C40.1046 139 41 138.105 41 137H39ZM39 84H41C41 82.8954 40.1046 82 39 82V84ZM22 137H20C20 138.105 20.8954 139 22 139V137ZM22 84V82C20.8954 82 20 82.8954 20 84H22ZM77 16H79V12H77V16ZM74 13C74 14.6569 75.3431 16 77 16V12C77.5523 12 78 12.4477 78 13H74ZM74 9V13H78V9H74ZM77 6C75.3431 6 74 7.34315 74 9H78C78 9.55229 77.5523 10 77 10V6ZM79.6828 6H77V10H79.6828V6ZM81.5685 8.66649C82.9422 4.77982 86.6491 2 91 2V-2C84.9012 -2 79.7181 1.89864 77.7971 7.33351L81.5685 8.66649ZM91 2C95.3509 2 99.0578 4.77982 100.431 8.66649L104.203 7.33351C102.282 1.89864 97.0988 -2 91 -2V2ZM105 6H102.317V10H105V6ZM108 9C108 7.34315 106.657 6 105 6V10C104.448 10 104 9.55229 104 9H108ZM108 13V9H104V13H108ZM105 16C106.657 16 108 14.6569 108 13H104C104 12.4477 104.448 12 105 12V16ZM103 16H105V12H103V16ZM101 14V22.5476H105V14H101ZM102.471 24.4765C104.138 24.9334 105.778 25.4949 107.381 26.159L108.912 22.4635C107.154 21.7353 105.356 21.1197 103.529 20.6188L102.471 24.4765ZM107.381 26.159C112.416 28.2446 116.991 31.3014 120.845 35.1551L123.673 32.3266C119.448 28.1016 114.432 24.7501 108.912 22.4635L107.381 26.159ZM120.845 35.1551C124.699 39.0087 127.755 43.5836 129.841 48.6186L133.537 47.0879C131.25 41.5676 127.898 36.5517 123.673 32.3266L120.845 35.1551ZM129.841 48.6186C131.866 53.5067 132.936 58.7355 132.997 64.023L136.997 63.977C136.93 58.1798 135.756 52.4471 133.537 47.0879L129.841 48.6186ZM134.997 66H167V62H134.997V66ZM165 64V74H169V64H165ZM167 76H180V72H167V76ZM178 74V84H182V74H178ZM180 82H167V86H180V82ZM165 84V137H169V84H165ZM167 139H180V135H167V139ZM178 137V151H182V137H178ZM180 149H0V153H180V149ZM2 151V137H-2V151H2ZM0 139H10V135H0V139ZM12 137V84H8V137H12ZM10 82H0V86H10V82ZM2 84V74H-2V84H2ZM0 76H10V72H0V76ZM12 74V64H8V74H12ZM10 66H48.0029V62H10V66ZM50.0027 64.023C50.0635 58.7355 51.1343 53.5067 53.159 48.6186L49.4635 47.0879C47.2436 52.4471 46.0696 58.1798 46.003 63.977L50.0027 64.023ZM53.159 48.6186C55.2446 43.5836 58.3014 39.0087 62.1551 35.1551L59.3266 32.3266C55.1016 36.5517 51.7501 41.5676 49.4635 47.0879L53.159 48.6186ZM62.1551 35.1551C66.0087 31.3014 70.5836 28.2446 75.6186 26.159L74.0879 22.4635C68.5676 24.7501 63.5517 28.1016 59.3266 32.3266L62.1551 35.1551ZM75.6186 26.159C76.9151 25.622 78.2356 25.1521 79.5747 24.7503L78.4253 20.919C76.9571 21.3595 75.5093 21.8747 74.0879 22.4635L75.6186 26.159ZM81 22.8347V14H77V22.8347H81ZM94 15C94 16.6569 92.6569 18 91 18V22C94.866 22 98 18.866 98 15H94ZM91 12C92.6569 12 94 13.3431 94 15H98C98 11.134 94.866 8 91 8V12ZM88 15C88 13.3431 89.3431 12 91 12V8C87.134 8 84 11.134 84 15H88ZM91 18C89.3431 18 88 16.6569 88 15H84C84 18.866 87.134 22 91 22V18ZM157 137V84H153V137H157ZM138 139H155V135H138V139ZM136 84V137H140V84H136ZM155 82H138V86H155V82ZM109 86H126V82H109V86ZM111 137V84H107V137H111ZM126 135H109V139H126V135ZM124 84V137H128V84H124ZM99 137V84H95V137H99ZM80 139H97V135H80V139ZM78 84V137H82V84H78ZM97 82H80V86H97V82ZM51 86H68V82H51V86ZM53 137V84H49V137H53ZM68 135H51V139H68V135ZM66 84V137H70V84H66ZM41 137V84H37V137H41ZM22 139H39V135H22V139ZM20 84V137H24V84H20ZM39 82H22V86H39V82Z" fill="black" mask="url(#path-1-inside-1)"/>
<path d="M48 64.5H135" stroke="black" stroke-opacity="0.3" stroke-width="2"/>
<path d="M10 74L167 74" stroke="black" stroke-opacity="0.3" stroke-width="2"/>
</svg>
