<svg width="187" height="112" viewBox="0 0 187 112" fill="none" xmlns="http://www.w3.org/2000/svg">
<mask id="path-1-inside-1" fill="white">
<path fill-rule="evenodd" clip-rule="evenodd" d="M34 30H48V55V69V112H34V69H14V112H0V69V67V55L34 55V30Z"/>
</mask>
<path fill-rule="evenodd" clip-rule="evenodd" d="M34 30H48V55V69V112H34V69H14V112H0V69V67V55L34 55V30Z" fill="#F9D88D"/>
<path d="M48 30H50V28H48V30ZM34 30V28H32V30H34ZM48 112V114H50V112H48ZM34 112H32V114H34V112ZM34 69H36V67H34V69ZM14 69V67H12V69H14ZM14 112V114H16V112H14ZM0 112H-2V114H0V112ZM0 55L1.12197e-07 53L-2 53V55H0ZM34 55L34 57L36 57V55H34ZM48 28H34V32H48V28ZM50 55V30H46V55H50ZM46 55V69H50V55H46ZM50 112V69H46V112H50ZM34 114H48V110H34V114ZM32 69V112H36V69H32ZM34 67H14V71H34V67ZM16 112V69H12V112H16ZM0 114H14V110H0V114ZM-2 69V112H2V69H-2ZM2 69V67H-2V69H2ZM2 67V55H-2V67H2ZM-1.12197e-07 57L34 57L34 53L1.12197e-07 53L-1.12197e-07 57ZM32 30V55H36V30H32Z" fill="black" mask="url(#path-1-inside-1)"/>
<mask id="path-3-inside-2" fill="white">
<path fill-rule="evenodd" clip-rule="evenodd" d="M153 30H139V55V69V112H153V69H173V112H187V69V67V55L153 55V30Z"/>
</mask>
<path fill-rule="evenodd" clip-rule="evenodd" d="M153 30H139V55V69V112H153V69H173V112H187V69V67V55L153 55V30Z" fill="#F9D88D"/>
<path d="M139 30H137V28H139V30ZM153 30V28H155V30H153ZM139 112V114H137V112H139ZM153 112H155V114H153V112ZM153 69H151V67H153V69ZM173 69V67H175V69H173ZM173 112V114H171V112H173ZM187 112H189V114H187V112ZM187 55L187 53L189 53V55H187ZM153 55L153 57L151 57V55H153ZM139 28H153V32H139V28ZM137 55V30H141V55H137ZM141 55V69H137V55H141ZM137 112V69H141V112H137ZM153 114H139V110H153V114ZM155 69V112H151V69H155ZM153 67H173V71H153V67ZM171 112V69H175V112H171ZM187 114H173V110H187V114ZM189 69V112H185V69H189ZM185 69V67H189V69H185ZM185 67V55H189V67H185ZM187 57L153 57L153 53L187 53L187 57ZM155 30V55H151V30H155Z" fill="black" mask="url(#path-3-inside-2)"/>
<line x1="1" y1="111" x2="187" y2="111" stroke="black" stroke-width="2"/>
<rect x="35" y="19" width="23" height="12" fill="#F9D88D" stroke="black" stroke-width="2"/>
<rect x="-1" y="1" width="23" height="12" transform="matrix(-1 0 0 1 151 18)" fill="#F9D88D" stroke="black" stroke-width="2"/>
<mask id="path-8-inside-3" fill="white">
<path d="M56.5374 8.69608C52.9691 10.4619 51 11.7558 51 11.7558L57.3099 31.64C59.7874 29.9921 62.5735 28.555 65.4489 27.3059C83.5767 19.4312 104.783 19.4312 122.911 27.3059C125.786 28.555 128.554 29.9921 131.032 31.64L137.36 11.7558C137.36 11.7558 135.391 10.4619 131.823 8.69608C108.393 -2.89869 79.967 -2.89869 56.5374 8.69608V8.69608Z"/>
</mask>
<path d="M56.5374 8.69608C52.9691 10.4619 51 11.7558 51 11.7558L57.3099 31.64C59.7874 29.9921 62.5735 28.555 65.4489 27.3059C83.5767 19.4312 104.783 19.4312 122.911 27.3059C125.786 28.555 128.554 29.9921 131.032 31.64L137.36 11.7558C137.36 11.7558 135.391 10.4619 131.823 8.69608C108.393 -2.89869 79.967 -2.89869 56.5374 8.69608V8.69608Z" fill="#F9D88D"/>
<path d="M51 11.7558L49.9017 10.0844L48.6354 10.9165L49.0937 12.3608L51 11.7558ZM57.3099 31.64L55.4035 32.2449L56.2066 34.7758L58.4175 33.3053L57.3099 31.64ZM65.4489 27.3059L66.2458 29.1403L66.2458 29.1403L65.4489 27.3059ZM122.911 27.3059L122.114 29.1403L122.114 29.1403L122.911 27.3059ZM131.032 31.64L129.924 33.3053L132.133 34.7745L132.937 32.2465L131.032 31.64ZM137.36 11.7558L139.266 12.3624L139.726 10.9173L138.458 10.0844L137.36 11.7558ZM131.823 8.69608L130.936 10.4886L130.936 10.4886L131.823 8.69608ZM55.6504 6.90356C53.8234 7.80764 52.4002 8.59371 51.4272 9.15807C50.9406 9.4403 50.5663 9.66721 50.3102 9.82587C50.1821 9.90521 50.0836 9.9675 50.0152 10.0111C49.9811 10.0329 49.9545 10.0501 49.9355 10.0624C49.926 10.0685 49.9185 10.0734 49.9128 10.0771C49.91 10.079 49.9077 10.0805 49.9058 10.0817C49.9049 10.0823 49.9041 10.0828 49.9034 10.0833C49.903 10.0835 49.9027 10.0837 49.9024 10.0839C49.9023 10.084 49.9021 10.0841 49.902 10.0842C49.9018 10.0843 49.9017 10.0844 51 11.7558C52.0983 13.4273 52.0982 13.4274 52.098 13.4275C52.098 13.4275 52.0978 13.4276 52.0977 13.4277C52.0976 13.4278 52.0975 13.4278 52.0973 13.4279C52.0971 13.4281 52.0971 13.4281 52.0971 13.4281C52.0971 13.4281 52.0977 13.4277 52.0987 13.427C52.1007 13.4257 52.1046 13.4232 52.1105 13.4194C52.1221 13.4119 52.1413 13.3995 52.1679 13.3825C52.2212 13.3484 52.3044 13.2958 52.4167 13.2263C52.6413 13.0871 52.9823 12.8802 53.434 12.6182C54.3376 12.0942 55.6831 11.3503 57.4245 10.4886L55.6504 6.90356ZM49.0937 12.3608L55.4035 32.2449L59.2162 31.0351L52.9063 11.1509L49.0937 12.3608ZM58.4175 33.3053C60.7709 31.7399 63.4462 30.3564 66.2458 29.1403L64.6521 25.4715C61.7008 26.7535 58.8038 28.2443 56.2022 29.9747L58.4175 33.3053ZM66.2458 29.1403C83.8653 21.4864 104.495 21.4864 122.114 29.1403L123.708 25.4715C105.072 17.376 83.2881 17.376 64.6521 25.4715L66.2458 29.1403ZM122.114 29.1403C124.91 30.3547 127.568 31.7381 129.924 33.3053L132.139 29.9747C129.54 28.2461 126.663 26.7552 123.708 25.4715L122.114 29.1403ZM132.937 32.2465L139.266 12.3624L135.454 11.1493L129.126 31.0335L132.937 32.2465ZM137.36 11.7558C138.458 10.0844 138.458 10.0843 138.458 10.0842C138.458 10.0841 138.458 10.084 138.458 10.0839C138.457 10.0837 138.457 10.0835 138.457 10.0833C138.456 10.0828 138.455 10.0823 138.454 10.0817C138.452 10.0805 138.45 10.079 138.447 10.0771C138.442 10.0734 138.434 10.0685 138.424 10.0624C138.406 10.0501 138.379 10.0329 138.345 10.0111C138.276 9.9675 138.178 9.90521 138.05 9.82587C137.794 9.66721 137.419 9.4403 136.933 9.15807C135.96 8.59371 134.537 7.80764 132.71 6.90356L130.936 10.4886C132.677 11.3503 134.022 12.0942 134.926 12.6182C135.378 12.8802 135.719 13.0871 135.943 13.2263C136.056 13.2958 136.139 13.3484 136.192 13.3825C136.219 13.3995 136.238 13.4119 136.25 13.4194C136.255 13.4232 136.259 13.4257 136.261 13.427C136.262 13.4277 136.263 13.428 136.263 13.4281C136.263 13.4281 136.263 13.4281 136.263 13.4279C136.263 13.4278 136.262 13.4278 136.262 13.4277C136.262 13.4276 136.262 13.4275 136.262 13.4275C136.262 13.4274 136.262 13.4273 137.36 11.7558ZM132.71 6.90358C108.721 -4.96786 79.639 -4.96786 55.6503 6.90357L57.4245 10.4886C80.295 -0.829533 108.065 -0.829529 130.936 10.4886L132.71 6.90358Z" fill="black" mask="url(#path-8-inside-3)"/>
<path d="M47 74H139" stroke="black" stroke-width="3"/>
<mask id="path-11-inside-4" fill="white">
<path d="M112 75C112 72.6362 111.534 70.2956 110.63 68.1117C109.725 65.9278 108.399 63.9435 106.728 62.2721C105.056 60.6006 103.072 59.2748 100.888 58.3702C98.7044 57.4656 96.3638 57 94 57C91.6362 57 89.2956 57.4656 87.1117 58.3702C84.9278 59.2748 82.9435 60.6006 81.2721 62.2721C79.6006 63.9435 78.2748 65.9278 77.3702 68.1117C76.4656 70.2956 76 72.6362 76 75L94 75H112Z"/>
</mask>
<path d="M112 75C112 72.6362 111.534 70.2956 110.63 68.1117C109.725 65.9278 108.399 63.9435 106.728 62.2721C105.056 60.6006 103.072 59.2748 100.888 58.3702C98.7044 57.4656 96.3638 57 94 57C91.6362 57 89.2956 57.4656 87.1117 58.3702C84.9278 59.2748 82.9435 60.6006 81.2721 62.2721C79.6006 63.9435 78.2748 65.9278 77.3702 68.1117C76.4656 70.2956 76 72.6362 76 75L94 75H112Z" stroke="black" stroke-width="6" mask="url(#path-11-inside-4)"/>
<line x1="94.5" y1="58" x2="94.5" y2="112" stroke="black" stroke-width="3"/>
<line x1="77.5" y1="73" x2="77.5" y2="112" stroke="black" stroke-width="3"/>
<line x1="131.5" y1="74" x2="131.5" y2="112" stroke="black" stroke-width="3"/>
<line x1="67.5" y1="73" x2="67.5" y2="112" stroke="black" stroke-width="3"/>
<line x1="121.5" y1="74" x2="121.5" y2="112" stroke="black" stroke-width="3"/>
<line x1="57.5" y1="73" x2="57.5" y2="112" stroke="black" stroke-width="3"/>
<line x1="111.5" y1="73" x2="111.5" y2="112" stroke="black" stroke-width="3"/>
</svg>
