<svg width="12" height="19" viewBox="0 0 12 19" fill="none" xmlns="http://www.w3.org/2000/svg">
<path d="M2.3476 6.26L5.01843 4.32C5.31826 4.10059 5.68293 3.98793 6.05427 4C6.50719 4.01129 6.94534 4.16342 7.30781 4.43524C7.67028 4.70705 7.93905 5.08504 8.07677 5.51667C8.23177 6.0025 8.37344 6.33083 8.50177 6.50167C8.88953 7.019 9.39253 7.43884 9.97085 7.72786C10.5492 8.01687 11.1869 8.16712 11.8334 8.16667V9.83333C10.9728 9.83427 10.1228 9.6444 9.34435 9.27739C8.56595 8.91038 7.8786 8.37535 7.33177 7.71083L6.75094 11.0067L8.46843 12.4483L10.3209 17.5383L8.75427 18.1083L7.05427 13.4383L4.22927 11.0675C3.99743 10.8803 3.82003 10.6344 3.71553 10.3553C3.61103 10.0762 3.58326 9.77427 3.6351 9.48083L4.05927 7.07667L3.4951 7.48667L1.7226 9.92667L0.374268 8.94667L2.33343 6.25L2.3476 6.26ZM7.2501 3.58333C6.80807 3.58333 6.38415 3.40774 6.07159 3.09518C5.75903 2.78262 5.58343 2.35869 5.58343 1.91667C5.58343 1.47464 5.75903 1.05072 6.07159 0.738155C6.38415 0.425595 6.80807 0.25 7.2501 0.25C7.69213 0.25 8.11605 0.425595 8.42861 0.738155C8.74117 1.05072 8.91677 1.47464 8.91677 1.91667C8.91677 2.35869 8.74117 2.78262 8.42861 3.09518C8.11605 3.40774 7.69213 3.58333 7.2501 3.58333ZM4.77343 14.5675L2.0951 17.7592L0.818434 16.6883L3.29843 13.7333L3.9201 11.9167L5.4126 13.1667L4.77343 14.5675Z" fill="#4F4F4F"/>
</svg>
