<svg width="14" height="14" viewBox="0 0 14 14" fill="none" xmlns="http://www.w3.org/2000/svg">
<path d="M13.25 10.0694V12.525C13.2501 12.7008 13.1835 12.8701 13.0636 12.9987C12.9437 13.1274 12.7796 13.2057 12.6042 13.2181C12.3007 13.2389 12.0528 13.25 11.8611 13.25C5.72431 13.25 0.75 8.27569 0.75 2.13889C0.75 1.94722 0.760417 1.69931 0.781944 1.39583C0.794252 1.22045 0.872626 1.05626 1.00125 0.936395C1.12988 0.816533 1.29918 0.749921 1.475 0.75H3.93056C4.01669 0.749913 4.09979 0.781847 4.1637 0.839598C4.22761 0.897349 4.26778 0.976794 4.27639 1.0625C4.29236 1.22222 4.30694 1.34931 4.32083 1.44583C4.45884 2.40897 4.74167 3.34572 5.15972 4.22431C5.2257 4.36319 5.18264 4.52917 5.05764 4.61806L3.55903 5.68889C4.47532 7.82393 6.17677 9.52538 8.31181 10.4417L9.38125 8.94583C9.42496 8.88472 9.48874 8.84089 9.56146 8.82198C9.63417 8.80307 9.71122 8.81028 9.77917 8.84236C10.6577 9.25963 11.5942 9.54175 12.5569 9.67917C12.6535 9.69306 12.7806 9.70833 12.9389 9.72361C13.0245 9.73239 13.1037 9.77262 13.1614 9.83651C13.219 9.90041 13.2508 9.98341 13.2507 10.0694H13.25Z" fill="#00439E"/>
</svg>
