<svg width="44" height="44" viewBox="0 0 44 44" fill="none" xmlns="http://www.w3.org/2000/svg">
<rect width="44" height="44" rx="8" fill="#9F1853"/>
<path d="M7 34H37V37H7V34ZM10 22H13V32.5H10V22ZM17.5 22H20.5V32.5H17.5V22ZM23.5 22H26.5V32.5H23.5V22ZM31 22H34V32.5H31V22ZM7 14.5L22 7L37 14.5V20.5H7V14.5ZM22 16C22.3978 16 22.7794 15.842 23.0607 15.5607C23.342 15.2794 23.5 14.8978 23.5 14.5C23.5 14.1022 23.342 13.7206 23.0607 13.4393C22.7794 13.158 22.3978 13 22 13C21.6022 13 21.2206 13.158 20.9393 13.4393C20.658 13.7206 20.5 14.1022 20.5 14.5C20.5 14.8978 20.658 15.2794 20.9393 15.5607C21.2206 15.842 21.6022 16 22 16Z" fill="white"/>
</svg>
