<svg width="14" height="13" viewBox="0 0 14 13" fill="none" xmlns="http://www.w3.org/2000/svg">
<path d="M1.66659 11.6667H12.3333V8.33334H13.6666V12.3333C13.6666 12.5102 13.5963 12.6797 13.4713 12.8047C13.3463 12.9298 13.1767 13 12.9999 13H0.999919C0.823108 13 0.653538 12.9298 0.528514 12.8047C0.40349 12.6797 0.333252 12.5102 0.333252 12.3333V8.33334H1.66659V11.6667ZM6.99992 5.66668H4.99992C4.36863 5.66624 3.74622 5.81542 3.18373 6.102C2.62123 6.38858 2.13466 6.80439 1.76392 7.31534C2.00057 6.10032 2.65234 5.0054 3.60757 4.21812C4.56281 3.43085 5.76207 3.00022 6.99992 3.00001V0.333344L12.3333 4.33334L6.99992 8.33334V5.66668Z" fill="#333333"/>
</svg>
