<svg width="18" height="18" viewBox="0 0 18 18" fill="none" xmlns="http://www.w3.org/2000/svg">
<path d="M9.00008 17.3334C4.39758 17.3334 0.666748 13.6025 0.666748 9.00002C0.666748 4.39752 4.39758 0.666687 9.00008 0.666687C13.6026 0.666687 17.3334 4.39752 17.3334 9.00002C17.3334 13.6025 13.6026 17.3334 9.00008 17.3334ZM7.09175 15.3892C6.26959 13.6453 5.79331 11.7585 5.68925 9.83335H2.38508C2.54724 11.1158 3.07835 12.3235 3.91389 13.3098C4.74943 14.2961 5.85343 15.0185 7.09175 15.3892ZM7.35841 9.83335C7.48425 11.8659 8.06508 13.775 9.00008 15.46C9.96035 13.7305 10.5213 11.8079 10.6417 9.83335H7.35841ZM15.6151 9.83335H12.3109C12.2069 11.7585 11.7306 13.6453 10.9084 15.3892C12.1467 15.0185 13.2507 14.2961 14.0863 13.3098C14.9218 12.3235 15.4529 11.1158 15.6151 9.83335ZM2.38508 8.16669H5.68925C5.79331 6.24151 6.26959 4.35476 7.09175 2.61085C5.85343 2.98159 4.74943 3.70398 3.91389 4.69027C3.07835 5.67655 2.54724 6.88427 2.38508 8.16669ZM7.35925 8.16669H10.6409C10.5207 6.19219 9.96006 4.26963 9.00008 2.54002C8.03982 4.26956 7.47888 6.19212 7.35841 8.16669H7.35925ZM10.9084 2.61085C11.7306 4.35476 12.2069 6.24151 12.3109 8.16669H15.6151C15.4529 6.88427 14.9218 5.67655 14.0863 4.69027C13.2507 3.70398 12.1467 2.98159 10.9084 2.61085Z" fill="#00439E"/>
</svg>
