<svg width="48" height="56" viewBox="0 0 48 56" fill="none" xmlns="http://www.w3.org/2000/svg">
<path d="M21.2426 6.43402C22.2816 4.0097 25.7184 4.00969 26.7574 6.43402L46.2078 51.8182C47.0562 53.7978 45.6041 56 43.4504 56H4.54962C2.39587 56 0.94378 53.7978 1.79218 51.8182L21.2426 6.43402Z" fill="black"/>
<path d="M19.6667 34.7312V37.2908C18.2713 38.0982 17.3333 39.6067 17.3333 41.3333C17.3333 43.9117 19.4217 46 22 46C23.7267 46 25.2352 45.062 26.0425 43.6667H28.601C27.6408 46.385 25.0473 48.3333 22 48.3333C18.1337 48.3333 15 45.1997 15 41.3333C15 38.2848 16.9483 35.6925 19.6667 34.7312V34.7312ZM24.3333 42.5C22.4002 42.5 20.8333 40.9332 20.8333 39V34.3333C20.8333 32.4002 22.4002 30.8333 24.3333 30.8333C26.2665 30.8333 27.8333 32.4002 27.8333 34.3333V40.1667H29.5063C30.2623 40.1667 30.9682 40.533 31.4033 41.142L31.5072 41.2995L34.6665 46.567L32.6668 47.7663L29.5052 42.5H24.3333ZM24.3333 25C25.9433 25 27.25 26.3067 27.25 27.9167C27.25 29.5267 25.9433 30.8333 24.3333 30.8333C22.7233 30.8333 21.4167 29.5267 21.4167 27.9167C21.4167 26.3067 22.7233 25 24.3333 25Z" fill="white"/>
</svg>
