<svg width="15" height="17" viewBox="0 0 15 17" fill="none" xmlns="http://www.w3.org/2000/svg">
<path d="M3.33333 7.26034V9.08868C2.33667 9.66534 1.66667 10.7428 1.66667 11.9762C1.66667 13.8178 3.15833 15.3095 5 15.3095C6.23333 15.3095 7.31083 14.6395 7.8875 13.6428H9.715C9.02917 15.5845 7.17667 16.9762 5 16.9762C2.23833 16.9762 0 14.7378 0 11.9762C0 9.79868 1.39167 7.94701 3.33333 7.26034V7.26034ZM6.66667 12.8095C5.28583 12.8095 4.16667 11.6903 4.16667 10.3095V6.97618C4.16667 5.59534 5.28583 4.47618 6.66667 4.47618C8.0475 4.47618 9.16667 5.59534 9.16667 6.97618V11.1428H10.3617C10.9017 11.1428 11.4058 11.4045 11.7167 11.8395L11.7908 11.952L14.0475 15.7145L12.6192 16.5712L10.3608 12.8095H6.66667ZM6.66667 0.309509C7.81667 0.309509 8.75 1.24284 8.75 2.39284C8.75 3.54284 7.81667 4.47618 6.66667 4.47618C5.51667 4.47618 4.58333 3.54284 4.58333 2.39284C4.58333 1.24284 5.51667 0.309509 6.66667 0.309509Z" fill="#00439E"/>
</svg>
